<svg height="800" viewBox="0 0 511 511" width="800" xmlns="http://www.w3.org/2000/svg"><path d="m492.168 309.579-17.626-10.177c2.96-14.723 4.458-29.466 4.458-43.902 0-14.646-1.474-29.403-4.384-43.946l17.552-10.134c5.436-3.138 9.325-8.206 10.949-14.269s.791-12.396-2.348-17.832l-48-83.139c-3.139-5.436-8.206-9.325-14.269-10.949-6.064-1.624-12.396-.791-17.833 2.348l-17.566 10.142c-22.189-19.521-48.303-34.629-76.101-44.029v-20.192c0-12.958-10.542-23.5-23.5-23.5h-96c-12.958 0-23.5 10.542-23.5 23.5v20.193c-27.65 9.362-53.728 24.49-75.999 44.088l-17.669-10.202c-5.437-3.139-11.77-3.973-17.833-2.348s-11.13 5.513-14.269 10.949l-48 83.139c-3.139 5.436-3.972 11.769-2.348 17.832s5.513 11.131 10.949 14.269l17.626 10.177c-2.958 14.723-4.457 29.466-4.457 43.903 0 14.644 1.474 29.401 4.384 43.945l-17.552 10.134c-11.222 6.479-15.08 20.879-8.602 32.102l48 83.139c6.479 11.221 20.879 15.08 32.102 8.601l17.565-10.142c22.19 19.521 48.303 34.629 76.103 44.03v20.191c0 12.958 10.542 23.5 23.5 23.5h96c12.958 0 23.5-10.542 23.5-23.5v-20.193c27.651-9.362 53.729-24.49 76-44.087l17.668 10.201c11.221 6.479 25.623 2.62 32.102-8.601l48-83.139c6.478-11.223 2.62-25.623-8.602-32.102zm-4.389 24.602-48 83.138c-2.343 4.06-7.552 5.455-11.611 3.111l-22.392-12.928c-2.845-1.643-6.43-1.242-8.842.989-22.893 21.173-50.437 37.148-79.653 46.199-3.14.973-5.281 3.877-5.281 7.164v25.646c0 4.687-3.813 8.5-8.5 8.5h-96c-4.687 0-8.5-3.813-8.5-8.5v-25.645c0-3.287-2.141-6.191-5.28-7.164-29.396-9.107-56.974-25.062-79.755-46.139-1.421-1.315-3.25-1.995-5.095-1.995-1.286 0-2.579.33-3.748 1.005l-22.29 12.868c-4.06 2.343-9.268.948-11.611-3.111l-48-83.138c-2.343-4.059-.947-9.268 3.111-11.612l22.272-12.859c2.844-1.642 4.289-4.942 3.566-8.146-3.431-15.207-5.17-30.706-5.17-46.064 0-15.1 1.765-30.584 5.247-46.022.722-3.203-.723-6.504-3.566-8.145l-22.349-12.903c-1.966-1.135-3.372-2.968-3.96-5.161-.587-2.193-.286-4.484.849-6.45l48-83.139c1.135-1.966 2.968-3.373 5.162-3.96 2.192-.588 4.484-.286 6.45.849l22.392 12.928c2.846 1.644 6.43 1.242 8.842-.989 22.894-21.173 50.437-37.148 79.653-46.199 3.14-.973 5.281-3.877 5.281-7.164v-25.645c0-4.687 3.813-8.5 8.5-8.5h96c4.687 0 8.5 3.813 8.5 8.5v25.645c0 3.287 2.141 6.191 5.28 7.164 29.395 9.106 56.973 25.061 79.755 46.139 2.412 2.232 5.997 2.633 8.843.99l22.29-12.869c1.967-1.135 4.258-1.437 6.45-.849 2.193.588 4.026 1.994 5.162 3.96l48 83.139c1.135 1.966 1.437 4.257.849 6.45s-1.994 4.026-3.96 5.161l-22.272 12.859c-2.844 1.642-4.289 4.943-3.566 8.146 3.431 15.206 5.17 30.704 5.17 46.065 0 15.1-1.765 30.584-5.247 46.021-.722 3.203.723 6.503 3.566 8.145l22.349 12.903c4.057 2.344 5.453 7.553 3.109 11.612z"/><path d="m255.5 104c-83.538 0-151.5 67.963-151.5 151.5s67.962 151.5 151.5 151.5 151.5-67.963 151.5-151.5-67.962-151.5-151.5-151.5zm0 288c-75.266 0-136.5-61.234-136.5-136.5s61.234-136.5 136.5-136.5 136.5 61.234 136.5 136.5-61.234 136.5-136.5 136.5z"/><path d="m283.5 216h-28c-4.142 0-7.5 3.358-7.5 7.5v64c0 4.142 3.358 7.5 7.5 7.5s7.5-3.358 7.5-7.5v-16.5h20.5c15.164 0 27.5-12.336 27.5-27.5s-12.336-27.5-27.5-27.5zm0 40h-20.5v-25h20.5c6.893 0 12.5 5.607 12.5 12.5s-5.607 12.5-12.5 12.5z"/><path d="m214.522 220.867c-1.098-2.927-3.896-4.867-7.022-4.867h-8c-3.126 0-5.925 1.939-7.022 4.867l-24 64c-1.455 3.878.511 8.201 4.389 9.656s8.201-.511 9.656-4.389l4.174-11.134h33.605l4.175 11.133c1.129 3.011 3.987 4.869 7.023 4.869.875 0 1.765-.154 2.632-.479 3.878-1.454 5.844-5.778 4.389-9.656zm-22.2 43.133 11.178-29.807 11.178 29.807z"/><path d="m327.5 216c-4.142 0-7.5 3.358-7.5 7.5v64c0 4.142 3.358 7.5 7.5 7.5s7.5-3.358 7.5-7.5v-64c0-4.142-3.358-7.5-7.5-7.5z"/><path d="m309.152 87.3c5.205 1.659 10.394 3.586 15.421 5.726.958.408 1.954.601 2.934.601 2.916 0 5.69-1.712 6.904-4.564 1.622-3.811-.152-8.216-3.963-9.838-5.458-2.323-11.09-4.415-16.742-6.216-3.945-1.258-8.165.922-9.423 4.868-1.257 3.946.923 8.165 4.869 9.423z"/><path d="m100.45 339.904c-1.984-3.636-6.541-4.976-10.176-2.992-3.636 1.984-4.976 6.54-2.992 10.176 3.112 5.704 6.557 11.315 10.239 16.677 1.454 2.117 3.801 3.255 6.189 3.255 1.463 0 2.941-.427 4.239-1.318 3.415-2.345 4.282-7.014 1.937-10.428-3.393-4.942-6.568-10.113-9.436-15.37z"/><path d="m240.14 431.341c-40.189-3.463-78.337-20.879-107.416-49.041-2.976-2.882-7.724-2.805-10.605.17-2.881 2.976-2.806 7.724.17 10.605 31.55 30.555 72.947 49.452 116.563 53.21.219.019.436.028.652.028 3.851 0 7.127-2.949 7.464-6.856.355-4.126-2.702-7.76-6.828-8.116z"/><path d="m363.425 97.287c-3.42-2.337-8.087-1.459-10.424 1.96-2.337 3.42-1.459 8.087 1.96 10.424 34.844 23.813 60.049 59.248 70.972 99.776.902 3.346 3.93 5.55 7.237 5.55.646 0 1.303-.084 1.956-.26 4-1.078 6.368-5.194 5.29-9.193-11.852-43.98-39.195-82.426-76.991-108.257z"/></svg>